{"accessors" : [{"bufferView" : 0, "byteOffset" : 0, "componentType" : 5123, "count" : 108, "type" : "SCALAR", "max" : [89], "min" : [0]}, {"bufferView" : 1, "byteOffset" : 0, "componentType" : 5126, "count" : 90, "type" : "VEC3", "max" : [1.0219999551773071, 2.306999921798706, 0.6880000233650208], "min" : [0.8190000057220459, 2.2090001106262207, 0.5009999871253967], "name" : "POSITION"}, {"bufferView" : 1, "byteOffset" : 12, "componentType" : 5126, "count" : 90, "type" : "VEC2", "max" : [-0.6578900218009949, -1.9206199645996094], "min" : [-0.6625300049781799, -1.9292099475860596], "name" : "TEXCOORD_0"}, {"bufferView" : 1, "byteOffset" : 20, "componentType" : 5126, "count" : 90, "type" : "VEC3", "max" : [0.8008245825767517, 0.9679644703865051, 0.9778522849082947], "min" : [-0.56959468126297, -0.40327188372612, -0.6621224284172058], "name" : "NORMAL"}, {"bufferView" : 0, "byteOffset" : 216, "componentType" : 5123, "count" : 2088, "type" : "SCALAR", "max" : [1739], "min" : [0]}, {"bufferView" : 2, "byteOffset" : 0, "componentType" : 5126, "count" : 1740, "type" : "VEC3", "max" : [1.1260000467300415, 2.299999952316284, 1.7410000562667847], "min" : [-0.054999999701976776, 0.7889999747276306, 0.3930000066757202], "name" : "POSITION"}, {"bufferView" : 2, "byteOffset" : 12, "componentType" : 5126, "count" : 1740, "type" : "VEC2", "max" : [0.514549970626831, -0.719760000705719], "min" : [0.27274999022483826, -0.8022199869155884], "name" : "TEXCOORD_0"}, {"bufferView" : 2, "byteOffset" : 20, "componentType" : 5126, "count" : 1740, "type" : "VEC3", "max" : [0.9974936842918396, 0.9983835220336914, 0.9986512660980225], "min" : [-0.9782657623291016, -0.9981513619422913, -0.8353320360183716], "name" : "NORMAL"}, {"bufferView" : 0, "byteOffset" : 4392, "componentType" : 5123, "count" : 2148, "type" : "SCALAR", "max" : [1789], "min" : [0]}, {"bufferView" : 3, "byteOffset" : 0, "componentType" : 5126, "count" : 1790, "type" : "VEC3", "max" : [-0.24199999868869781, 2.3259999752044678, 1.7410000562667847], "min" : [-1.409000039100647, 0.7889999747276306, 0.3889999985694885], "name" : "POSITION"}, {"bufferView" : 3, "byteOffset" : 12, "componentType" : 5126, "count" : 1790, "type" : "VEC2", "max" : [0.3016499876976013, -0.8550699949264526], "min" : [-0.6625300049781799, -1.9308799505233765], "name" : "TEXCOORD_0"}, {"bufferView" : 3, "byteOffset" : 20, "componentType" : 5126, "count" : 1790, "type" : "VEC3", "max" : [0.9917812943458557, 0.9974035620689392, 0.9985241889953613], "min" : [-0.99913489818573, -0.9979313611984253, -0.8151530623435974], "name" : "NORMAL"}, {"bufferView" : 0, "byteOffset" : 8688, "componentType" : 5123, "count" : 18, "type" : "SCALAR", "max" : [14], "min" : [0]}, {"bufferView" : 4, "byteOffset" : 0, "componentType" : 5126, "count" : 15, "type" : "VEC3", "max" : [0.2529999911785126, 1.281999945640564, 1.6369999647140503], "min" : [0.09799999743700027, 1.1820000410079956, 1.5829999446868896], "name" : "POSITION"}, {"bufferView" : 4, "byteOffset" : 12, "componentType" : 5126, "count" : 15, "type" : "VEC2", "max" : [-0.746999979019165, -1.8777799606323242], "min" : [-0.7562800049781799, -1.8866300582885742], "name" : "TEXCOORD_0"}, {"bufferView" : 4, "byteOffset" : 20, "componentType" : 5126, "count" : 15, "type" : "VEC3", "max" : [0.3578615188598633, 0.04860036075115204, 0.9551513195037842], "min" : [0.29592040181159973, -0.0031900133471935987, 0.933773934841156], "name" : "NORMAL"}, {"bufferView" : 0, "byteOffset" : 8724, "componentType" : 5123, "count" : 708, "type" : "SCALAR", "max" : [589], "min" : [0]}, {"bufferView" : 5, "byteOffset" : 0, "componentType" : 5126, "count" : 590, "type" : "VEC3", "max" : [0.9599999785423279, 1.815000057220459, 1.6419999599456787], "min" : [0.08699999749660492, 0.9190000295639038, 0.7049999833106995], "name" : "POSITION"}, {"bufferView" : 5, "byteOffset" : 12, "componentType" : 5126, "count" : 590, "type" : "VEC2", "max" : [0.768060028553009, -0.20746000111103058], "min" : [0.1791200041770935, -0.7735900282859802], "name" : "TEXCOORD_0"}, {"bufferView" : 5, "byteOffset" : 20, "componentType" : 5126, "count" : 590, "type" : "VEC3", "max" : [0.9441320300102234, 0.09351049363613129, 0.9499585628509521], "min" : [0.3123828172683716, -0.39401307702064514, 0.32022199034690857], "name" : "NORMAL"}, {"bufferView" : 0, "byteOffset" : 10140, "componentType" : 5123, "count" : 12, "type" : "SCALAR", "max" : [9], "min" : [0]}, {"bufferView" : 6, "byteOffset" : 0, "componentType" : 5126, "count" : 10, "type" : "VEC3", "max" : [0.18400000035762787, 0.26899999380111694, 0.7020000219345093], "min" : [-0.47600001096725464, 0, 0.3100000023841858], "name" : "POSITION"}, {"bufferView" : 6, "byteOffset" : 12, "componentType" : 5126, "count" : 10, "type" : "VEC2", "max" : [1, -0], "min" : [0, -1], "name" : "TEXCOORD_0"}, {"bufferView" : 6, "byteOffset" : 20, "componentType" : 5126, "count" : 10, "type" : "VEC3", "max" : [0, 1.0000044107437134, 0], "min" : [0, 0.35765013098716736, -0.9338603615760803], "name" : "NORMAL"}, {"bufferView" : 0, "byteOffset" : 10164, "componentType" : 5123, "count" : 726, "type" : "SCALAR", "max" : [604], "min" : [0]}, {"bufferView" : 7, "byteOffset" : 0, "componentType" : 5126, "count" : 605, "type" : "VEC3", "max" : [-0.3840000033378601, 1.815000057220459, 1.6410000324249268], "min" : [-1.253999948501587, 0.9190000295639038, 0.7009999752044678], "name" : "POSITION"}, {"bufferView" : 7, "byteOffset" : 12, "componentType" : 5126, "count" : 605, "type" : "VEC2", "max" : [0.7735900282859802, -0.17996999621391296], "min" : [0.26822999119758606, -0.7786700129508972], "name" : "TEXCOORD_0"}, {"bufferView" : 7, "byteOffset" : 20, "componentType" : 5126, "count" : 605, "type" : "VEC3", "max" : [-0.29993000626564026, 0.09350030869245529, 0.9539000988006592], "min" : [-0.9454161524772644, -0.3939613401889801, 0.31645095348358154], "name" : "NORMAL"}], "asset" : {"generator" : "Aspose.3D 23.2", "version" : "2.0"}, "buffers" : [{"uri" : "data:application/octet-stream;base64,", "byteLength" : 197504}], "bufferViews" : [{"buffer" : 0, "byteOffset" : 0, "byteLength" : 11616, "target" : 34963}, {"buffer" : 0, "byteOffset" : 11620, "byteLength" : 3456, "byteStride" : 32, "target" : 34962}, {"buffer" : 0, "byteOffset" : 15080, "byteLength" : 66816, "byteStride" : 32, "target" : 34962}, {"buffer" : 0, "byteOffset" : 81900, "byteLength" : 68736, "byteStride" : 32, "target" : 34962}, {"buffer" : 0, "byteOffset" : 150640, "byteLength" : 576, "byteStride" : 32, "target" : 34962}, {"buffer" : 0, "byteOffset" : 151220, "byteLength" : 22656, "byteStride" : 32, "target" : 34962}, {"buffer" : 0, "byteOffset" : 173880, "byteLength" : 384, "byteStride" : 32, "target" : 34962}, {"buffer" : 0, "byteOffset" : 174268, "byteLength" : 23232, "byteStride" : 32, "target" : 34962}], "meshes" : [{"primitives" : [{"attributes" : {"POSITION" : 1, "TEXCOORD_0" : 2, "NORMAL" : 3}, "indices" : 0, "mode" : 4}], "name" : ""}, {"primitives" : [{"attributes" : {"POSITION" : 5, "TEXCOORD_0" : 6, "NORMAL" : 7}, "indices" : 4, "mode" : 4}], "name" : ""}, {"primitives" : [{"attributes" : {"POSITION" : 9, "TEXCOORD_0" : 10, "NORMAL" : 11}, "indices" : 8, "mode" : 4}], "name" : ""}, {"primitives" : [{"attributes" : {"POSITION" : 13, "TEXCOORD_0" : 14, "NORMAL" : 15}, "indices" : 12, "mode" : 4}], "name" : ""}, {"primitives" : [{"attributes" : {"POSITION" : 17, "TEXCOORD_0" : 18, "NORMAL" : 19}, "indices" : 16, "mode" : 4}], "name" : ""}, {"primitives" : [{"attributes" : {"POSITION" : 21, "TEXCOORD_0" : 22, "NORMAL" : 23}, "indices" : 20, "mode" : 4}], "name" : ""}, {"primitives" : [{"attributes" : {"POSITION" : 25, "TEXCOORD_0" : 26, "NORMAL" : 27}, "indices" : 24, "mode" : 4}], "name" : ""}], "nodes" : [{"mesh" : 0, "name" : "Buffer_Object"}, {"mesh" : 1, "name" : "Buffer_Object"}, {"mesh" : 2, "name" : "Mesh.002_Model001_24_GTAMtl_1.0_0.0_0.002"}, {"mesh" : 3, "name" : "Buffer_Object"}, {"mesh" : 4, "name" : "Buffer_Object"}, {"mesh" : 5, "name" : "Plane_Plane.001"}, {"mesh" : 6, "name" : "Mesh_Model001_24_GTAMtl_1.0_0.0_0.0"}], "scene" : 0, "scenes" : [{"nodes" : [0, 1, 2, 3, 4, 5, 6]}]}